<svg width="50" height="50" viewBox="0 0 50 50" fill="none" xmlns="http://www.w3.org/2000/svg">
<path d="M43.7502 29.1667C43.7502 28.0208 42.8127 27.0833 41.6668 27.0833H37.5002V31.25H41.6668C42.8127 31.25 43.7502 30.3125 43.7502 29.1667ZM41.6668 35.4167H37.5002V39.5833H41.6668C42.8127 39.5833 43.7502 38.6458 43.7502 37.5C43.7502 36.3542 42.8127 35.4167 41.6668 35.4167ZM25.0002 29.1667H20.8335V37.5H25.0002C25.0002 39.7917 26.8752 41.6667 29.1668 41.6667H35.4168V25H29.1668C26.8752 25 25.0002 26.875 25.0002 29.1667Z" fill="#00596B"/>
<path d="M10.4167 27.0833C10.4167 24.7916 12.2917 22.9166 14.5833 22.9166H17.7083C21.7292 22.9166 25 19.6458 25 15.6249C25 11.6041 21.7292 8.33325 17.7083 8.33325H10.4167C9.27083 8.33325 8.33333 9.27075 8.33333 10.4166C8.33333 11.5624 9.27083 12.4999 10.4167 12.4999H17.7083C19.4375 12.4999 20.8333 13.8958 20.8333 15.6249C20.8333 17.3541 19.4375 18.7499 17.7083 18.7499H14.5833C9.97917 18.7499 6.25 22.4791 6.25 27.0833C6.25 31.6874 9.97917 35.4166 14.5833 35.4166H18.75V31.2499H14.5833C12.2917 31.2499 10.4167 29.3749 10.4167 27.0833Z" fill="#00596B"/>
</svg>
